<svg id="common_img_logo.svg" data-name="common/img/logo.svg" xmlns="http://www.w3.org/2000/svg" width="161.5" height="40.688" viewBox="0 0 161.5 40.688">
  <defs>
    <style>
      .cls-1, .cls-2 {
        fill-rule: evenodd;
      }

      .cls-2 {
        fill: #e63d30;
      }
    </style>
  </defs>
  <path id="type" class="cls-1" d="M181.934,45.646c0,8.966.316,17.932,0.316,17.932h-5.117s0.316-8.966.316-17.932-0.316-17.932-.316-17.932h5.117s-0.316,8.966-.316,17.932m-101.584,0c0,8.966.316,17.932,0.316,17.932H75.549s0.316-8.966.316-17.932-0.316-17.932-.316-17.932h5.117S80.35,36.68,80.35,45.646m87.093,6.286c-3.236-4.511-5.34-7.56-6.581-9.393,5.078-5.366,13.73-14.825,13.73-14.825h-6.416s-4.143,4.977-10.093,11.665c-2.259,2.539-3.977,4.416-5.259,5.786,0.01-8.8.315-17.451,0.315-17.451h-5.117s0.316,8.966.316,17.932-0.316,17.932-.316,17.932h5.117s-0.2-5.576-.28-12.331c1.475-1.624,3.232-3.553,4.8-5.256,1.137,1.5,2.834,3.848,5.294,7.465,4.479,6.585,6.695,10.122,6.695,10.122h6.305s-3.287-4.369-8.506-11.646M125.83,61.362c-9.227,0-14.042-7.044-14.042-15.732S116.922,30,125.935,30s13.936,6.938,13.936,15.627S134.9,61.362,125.83,61.362m-0.054-35.169c-10.535,0-19.076,8.215-19.076,19.438,0,10.735,7.923,19.437,19.076,19.437,10.535,0,19.077-7.839,19.077-19.437,0-12.028-8.542-19.438-19.077-19.438m-15.144,5.649V27.634H82.193v4.207s-0.036-.355,11.877-0.4c0.091,3.443.205,8.821,0.205,14.2,0,8.966-.317,17.932-0.317,17.932h5.117s-0.316-8.965-.316-17.931c0-5.38.114-10.758,0.205-14.2,11.618,0.042,11.295.379,11.667,0.4" transform="translate(-20.75 -25.156)"/>
  <path id="mark" class="cls-2" d="M51.729,37.129l-2.383-2.392,9.532-9.567,2.383,2.392Zm-14.3,0-2.383-2.392,9.532-9.567,2.383,2.392Zm-14.3,0L20.75,34.738l9.532-9.567,2.383,2.392Zm28.6,14.35-2.383-2.392,9.532-9.566,2.383,2.391Zm-14.3,0-2.383-2.392,9.532-9.566,2.383,2.391Zm-14.3,0L20.75,49.087l9.532-9.566,2.383,2.391Zm28.6,14.35-2.383-2.392,9.532-9.567,2.383,2.392Zm-14.3,0-2.383-2.392L44.58,53.87l2.383,2.392Zm-14.3,0L20.75,63.437l9.532-9.567,2.383,2.392Z" transform="translate(-20.75 -25.156)"/>
</svg>
