<?xml version="1.0" encoding="UTF-8"?>
<svg width="542px" height="44px" viewBox="0 0 542 44" version="1.1" xmlns="http://www.w3.org/2000/svg" xmlns:xlink="http://www.w3.org/1999/xlink">
    <!-- Generator: Sketch 53 (72520) - https://sketchapp.com -->
    <title>logo</title>
    <desc>Created with Sketch.</desc>
    <g id="logo" stroke="none" stroke-width="1" fill="none" fill-rule="evenodd">
        <path d="M24.4,43 L13.6,43 L13.6,9.4 L1,9.4 L1,1 L37,1 L37,9.4 L24.4,9.4 L24.4,43 Z M48.7,43 L37,43 L52.9,1 L64.9,1 L80.8,43 L69.1,43 L66.4,35.5 L51.4,35.5 L48.7,43 Z M54.1,27.7 L63.7,27.7 L58.9,13.6 L54.1,27.7 Z M84.63,1 L109.83,1 C114.030021,1 117.07999,1.9499905 118.98,3.85 C120.880009,5.7500095 121.83,8.799979 121.83,13 L121.83,18.4 C121.83,21.7200166 121.280005,24.2999908 120.18,26.14 C119.079994,27.9800092 117.330012,29.199997 114.93,29.8 L122.43,43 L110.73,43 L103.83,30.4 L95.43,30.4 L95.43,43 L84.63,43 L84.63,1 Z M111.03,13 C111.03,10.599988 109.830012,9.4 107.43,9.4 L95.43,9.4 L95.43,22 L107.43,22 C109.830012,22 111.03,20.800012 111.03,18.4 L111.03,13 Z M155.66,1 L166.46,1 L166.46,31.6 C166.46,35.800021 165.510009,38.8499905 163.61,40.75 C161.70999,42.6500095 158.660021,43.6 154.46,43.6 L140.66,43.6 C136.459979,43.6 133.41001,42.6500095 131.51,40.75 C129.609991,38.8499905 128.66,35.800021 128.66,31.6 L128.66,1 L139.46,1 L139.46,31.6 C139.46,34.000012 140.659988,35.2 143.06,35.2 L152.06,35.2 C154.460012,35.2 155.66,34.000012 155.66,31.6 L155.66,1 Z M210.49,19.6 L202.09,34.6 L193.69,34.6 L185.29,19.6 L185.29,43 L174.49,43 L174.49,1 L185.89,1 L197.89,23.2 L209.89,1 L221.29,1 L221.29,43 L210.49,43 L210.49,19.6 Z M237.65,43 L225.95,43 L241.85,1 L253.85,1 L269.75,43 L258.05,43 L255.35,35.5 L240.35,35.5 L237.65,43 Z M243.05,27.7 L252.65,27.7 L247.85,13.6 L243.05,27.7 Z M307.71,43 L274.41,43 L274.41,1 L307.71,1 L307.71,9.4 L285.21,9.4 L285.21,17.5 L302.91,17.5 L302.91,25.9 L285.21,25.9 L285.21,34.6 L307.71,34.6 L307.71,43 Z M333.57,43 L333.57,1.72 L359.43,1.72 L359.43,4.36 L336.45,4.36 L336.45,20.8 L356.61,20.8 L356.61,23.44 L336.45,23.44 L336.45,40.36 L359.43,40.36 L359.43,43 L333.57,43 Z M397.53,43 L372.57,7 L372.33,7 L372.33,43 L369.51,43 L369.51,1.72 L372.39,1.72 L397.29,37.6 L397.53,37.6 L397.53,1.72 L400.29,1.72 L400.29,43 L397.53,43 Z M428.13,24.4 L428.13,21.76 L441.99,21.76 L441.99,42.4 C440.109991,42.7200016 437.980012,42.979999 435.6,43.18 C433.219988,43.380001 431.110009,43.48 429.27,43.48 C424.229975,43.48 420.560011,42.9900049 418.26,42.01 C415.959989,41.0299951 414.380004,39.1000144 413.52,36.22 C412.659996,33.3399856 412.23,28.7200318 412.23,22.36 C412.23,16.0399684 412.669996,11.4300145 413.55,8.53 C414.430004,5.6299855 416.019989,3.6900049 418.32,2.71 C420.620011,1.7299951 424.269975,1.24 429.27,1.24 C431.27001,1.24 433.459988,1.3499989 435.84,1.57 C438.220012,1.7900011 440.209992,2.0599984 441.81,2.38 L441.81,4.84 C440.009991,4.5599986 438.11001,4.3300009 436.11,4.15 C434.10999,3.9699991 432.470006,3.88 431.19,3.88 C426.149975,3.88 422.62001,4.179997 420.6,4.78 C418.57999,5.380003 417.150004,6.9299875 416.31,9.43 C415.469996,11.9300125 415.05,16.2399694 415.05,22.36 C415.05,28.0400284 415.359997,32.1099877 415.98,34.57 C416.600003,37.0300123 417.85999,38.6899957 419.76,39.55 C421.66001,40.4100043 424.809978,40.84 429.21,40.84 C430.650007,40.84 432.35999,40.7700007 434.34,40.63 C436.32001,40.4899993 437.929994,40.3400008 439.17,40.18 L439.17,24.4 L428.13,24.4 Z M454.47,43 L454.47,1.72 L457.35,1.72 L457.35,43 L454.47,43 Z M498.69,43 L473.73,7 L473.49,7 L473.49,43 L470.67,43 L470.67,1.72 L473.55,1.72 L498.45,37.6 L498.69,37.6 L498.69,1.72 L501.45,1.72 L501.45,43 L498.69,43 Z M514.83,43 L514.83,1.72 L540.69,1.72 L540.69,4.36 L517.71,4.36 L517.71,20.8 L537.87,20.8 L537.87,23.44 L517.71,23.44 L517.71,40.36 L540.69,40.36 L540.69,43 L514.83,43 Z" id="TARUMAEENGINE" fill="#191219" fill-rule="nonzero"></path>
    </g>
</svg>